 <svg
      viewBox="0 0 40 32"
      xmlns="http://www.w3.org/2000/svg"
      fill="currentColor"
    >
      <path d="M4.10453 4.18064C3.74761 4.54193 3.46718 4.95484 3.26323 5.41935C3.07627 5.81505 2.9573 6.34839 2.90631 7.01936C2.87232 7.67312 2.85532 8.8086 2.85532 10.4258V21.5742C2.85532 23.1742 2.87232 24.3097 2.90631 24.9806C2.9573 25.6516 3.07627 26.1849 3.26323 26.5806C3.46718 27.0452 3.74761 27.4581 4.10453 27.8194C4.47844 28.1806 4.89484 28.4731 5.35373 28.6968C5.74464 28.886 6.26301 28.9979 6.90886 29.0323C7.5717 29.0839 8.70193 29.1097 10.2996 29.1097H29.7004C31.2981 29.1097 32.4198 29.0839 33.0656 29.0323C33.7285 28.9979 34.2554 28.886 34.6463 28.6968C35.598 28.2495 36.2949 27.5441 36.7368 26.5806C36.9237 26.1849 37.0342 25.6516 37.0682 24.9806C37.1192 24.3097 37.1447 23.1742 37.1447 21.5742V10.4258C37.1447 8.8086 37.1192 7.67312 37.0682 7.01936C37.0342 6.34839 36.9237 5.81505 36.7368 5.41935C36.2949 4.45591 35.598 3.75054 34.6463 3.30322C34.2554 3.11398 33.7285 3.00215 33.0656 2.96774C32.4198 2.91613 31.2981 2.89032 29.7004 2.89032H10.2996C8.70193 2.89032 7.5717 2.91613 6.90886 2.96774C6.26301 3.00215 5.74464 3.11398 5.35373 3.30322C4.89484 3.52688 4.47844 3.81935 4.10453 4.18064ZM33.652 31.8968C32.8532 31.9656 31.536 32 29.7004 32H10.2996C8.46399 32 7.1383 31.9656 6.3225 31.8968C5.52369 31.828 4.80136 31.6387 4.15551 31.329C3.3737 30.9677 2.67686 30.4774 2.06501 29.8581C1.47015 29.2559 1.00276 28.5677 0.662843 27.7935C0.356915 27.1398 0.16996 26.4 0.101976 25.5742C0.0339919 24.7656 0 23.4323 0 21.5742V10.4258C0 8.56774 0.0339919 7.23441 0.101976 6.42581C0.16996 5.6 0.356915 4.86021 0.662843 4.20645C1.00276 3.43226 1.47015 2.74409 2.06501 2.14194C2.67686 1.52258 3.3737 1.03226 4.15551 0.670967C4.80136 0.361289 5.52369 0.172042 6.3225 0.103224C7.1383 0.0344082 8.46399 0 10.2996 0H29.7004C31.536 0 32.8532 0.0344082 33.652 0.103224C34.4678 0.172042 35.1986 0.361289 35.8445 0.670967C36.6093 1.03226 37.2891 1.52258 37.884 2.14194C38.4959 2.74409 38.9802 3.43226 39.3372 4.20645C39.6431 4.86021 39.83 5.6 39.898 6.42581C39.966 7.23441 40 8.56774 40 10.4258V21.5742C40 23.4323 39.966 24.7656 39.898 25.5742C39.83 26.4 39.6431 27.1398 39.3372 27.7935C38.9802 28.5677 38.4959 29.2559 37.884 29.8581C37.2891 30.4774 36.6093 30.9677 35.8445 31.329C35.1986 31.6387 34.4678 31.828 33.652 31.8968ZM18.3047 17.3161C17.9307 16.5763 17.4209 15.9656 16.775 15.4839C17.3359 15.071 17.7778 14.529 18.1007 13.8581C18.4406 13.1871 18.6106 12.4731 18.6106 11.7161C18.6106 10.8043 18.3641 9.95269 17.8713 9.16129C17.3784 8.35269 16.7155 7.70753 15.8827 7.22581C15.0499 6.74409 14.1491 6.50323 13.1804 6.50323C12.2626 6.50323 11.4043 6.70968 10.6055 7.12258C9.82367 7.53548 9.17782 8.10323 8.66794 8.82581C8.15806 9.53118 7.85213 10.314 7.75016 11.1742L10.631 11.7161C10.733 11.0452 10.9964 10.486 11.4213 10.0387C11.8462 9.57419 12.4325 9.34194 13.1804 9.34194C13.8602 9.34194 14.4466 9.5828 14.9395 10.0645C15.4323 10.529 15.6788 11.0796 15.6788 11.7161C15.6788 12.3699 15.4408 12.9204 14.9649 13.3677C14.4891 13.7978 13.8942 14.0215 13.1804 14.0387L12.0076 14.0645V16.8774L12.9509 16.9032C13.8177 16.9204 14.5315 17.1957 15.0924 17.729C15.6533 18.2624 15.9337 18.9247 15.9337 19.7161C15.9337 20.4903 15.6363 21.1699 15.0414 21.7548C14.4636 22.3226 13.7667 22.6065 12.9509 22.6065C12.1011 22.6065 11.4128 22.357 10.8859 21.8581C10.376 21.3419 10.0531 20.628 9.91714 19.7161L7.01083 20.3097C7.11281 21.2559 7.44423 22.1247 8.0051 22.9161C8.56596 23.7075 9.27979 24.3355 10.1466 24.8C11.0134 25.2645 11.9482 25.4968 12.9509 25.4968C14.0217 25.4968 15.0074 25.2387 15.9082 24.7226C16.809 24.1892 17.5228 23.4839 18.0497 22.6065C18.5936 21.7118 18.8655 20.7484 18.8655 19.7161C18.8655 18.8387 18.6786 18.0387 18.3047 17.3161ZM29.8789 13.8581C28.9271 13.2903 27.8904 13.0065 26.7686 13.0065C25.9528 13.0065 25.12 13.2043 24.2702 13.6V10.4516C24.2702 10.228 24.3467 10.0387 24.4997 9.88387C24.6526 9.72903 24.8396 9.65161 25.0605 9.65161H31.3576L32.2243 6.76129H26.0038C25.188 6.76129 24.5932 6.77849 24.2192 6.8129C23.8623 6.84731 23.5309 6.93333 23.225 7.07097C22.5112 7.38065 21.9758 7.91398 21.6189 8.67097C21.4829 8.98064 21.3979 9.32473 21.3639 9.70323C21.3469 10.0645 21.3384 10.6581 21.3384 11.4839V15.4839L23.7349 17.1871C24.1938 16.7742 24.6611 16.4559 25.137 16.2323C25.6299 16.0086 26.1738 15.8968 26.7686 15.8968C27.3635 15.8968 27.9074 16.0516 28.4003 16.3613C28.9101 16.671 29.3095 17.0839 29.5985 17.6C29.8874 18.0989 30.0319 18.6495 30.0319 19.2516C30.0319 20.1806 29.7259 20.972 29.1141 21.6258C28.5022 22.2796 27.7204 22.6065 26.7686 22.6065C25.9868 22.6065 25.307 22.357 24.7291 21.8581C24.1513 21.3591 23.7689 20.7312 23.5819 19.9742L20.7011 20.5419C20.905 21.471 21.2959 22.314 21.8738 23.071C22.4517 23.828 23.1655 24.4215 24.0153 24.8516C24.8821 25.2817 25.7999 25.4968 26.7686 25.4968C27.8904 25.4968 28.9271 25.2301 29.8789 24.6968C30.8307 24.1462 31.587 23.3979 32.1479 22.4516C32.7087 21.5054 32.9892 20.4645 32.9892 19.329C32.9892 18.1763 32.7087 17.1183 32.1479 16.1548C31.587 15.1914 30.8307 14.4258 29.8789 13.8581Z" />
    </svg>