<svg width="319" height="242" viewBox="0 0 319 242" fill="none" xmlns="http://www.w3.org/2000/svg">
<path d="M32.6705 97H4.6875V24.2727H32.3864C39.8674 24.2727 46.3305 25.7287 51.7756 28.6406C57.2443 31.5289 61.4583 35.6955 64.4176 41.1406C67.4006 46.562 68.892 53.0606 68.892 60.6364C68.892 68.2121 67.4124 74.7225 64.4531 80.1676C61.4938 85.589 57.3035 89.7557 51.8821 92.6676C46.4607 95.5559 40.0568 97 32.6705 97ZM24.4318 80.2386H31.9602C35.5587 80.2386 38.6245 79.6586 41.1577 78.4986C43.7145 77.3385 45.6558 75.3381 46.9815 72.4972C48.331 69.6562 49.0057 65.7027 49.0057 60.6364C49.0057 55.5701 48.3191 51.6165 46.946 48.7756C45.5966 45.9347 43.608 43.9342 40.9801 42.7741C38.3759 41.6141 35.1799 41.0341 31.392 41.0341H24.4318V80.2386ZM78.0273 97V24.2727H109.419C114.817 24.2727 119.54 25.2552 123.588 27.2202C127.637 29.1851 130.785 32.0142 133.034 35.7074C135.283 39.4006 136.408 43.8276 136.408 48.9886C136.408 54.197 135.248 58.5885 132.928 62.1634C130.632 65.7382 127.4 68.437 123.233 70.2599C119.09 72.0829 114.249 72.9943 108.709 72.9943H89.9592V57.6534H104.732C107.052 57.6534 109.029 57.3693 110.662 56.8011C112.319 56.2093 113.586 55.2741 114.462 53.9957C115.362 52.7173 115.811 51.0483 115.811 48.9886C115.811 46.9053 115.362 45.2126 114.462 43.9105C113.586 42.5848 112.319 41.6141 110.662 40.9986C109.029 40.3594 107.052 40.0398 104.732 40.0398H97.7717V97H78.0273ZM120.641 63.6193L138.823 97H117.374L99.6183 63.6193H120.641ZM164.569 24.2727V97H144.824V24.2727H164.569ZM173.926 97V24.2727H226.341V40.1818H193.67V52.6818H223.642V68.5909H193.67V81.0909H226.199V97H173.926ZM236.133 97V24.2727H255.877V53.6761H256.871L278.746 24.2727H301.758L277.184 56.6591L302.326 97H278.746L262.411 69.7273L255.877 78.25V97H236.133ZM30.3977 218H11.3636V145.273H32.2443C38.9441 145.273 44.6733 146.717 49.4318 149.605C54.214 152.47 57.8717 156.589 60.4048 161.963C62.9616 167.337 64.2282 173.8 64.2045 181.352C64.1809 189.094 62.8314 195.699 60.1562 201.168C57.5047 206.613 53.6577 210.779 48.6151 213.668C43.5961 216.556 37.5237 218 30.3977 218ZM13.6364 215.727H30.3977C37.1212 215.727 42.8385 214.366 47.5497 211.643C52.2609 208.897 55.8357 204.955 58.2741 199.818C60.7363 194.681 61.9555 188.526 61.9318 181.352C61.9081 174.274 60.7244 168.213 58.3807 163.17C56.0606 158.128 52.6989 154.269 48.2955 151.594C43.892 148.895 38.5417 147.545 32.2443 147.545H13.6364V215.727ZM82.848 218V145.273H121.626V147.545H85.1207V180.5H119.496V182.773H85.1207V215.727H122.621V218H82.848ZM135.565 145.273L160.565 215.159H160.849L185.849 145.273H188.263L162.269 218H159.144L133.15 145.273H135.565ZM203.862 182.773V180.5L242.782 155.216V157.915L205.993 181.778L206.419 181.068V182.205L205.993 181.494L242.782 205.358V208.057L203.862 182.773ZM306.454 182.773L267.534 208.057V205.358L304.324 181.494L303.897 182.205V181.068L304.324 181.778L267.534 157.915V155.216L306.454 180.5V182.773Z" fill="url(#paint0_linear_3_14)"/>
<defs>
<linearGradient id="paint0_linear_3_14" x1="5.5" y1="25.5" x2="301.5" y2="209" gradientUnits="userSpaceOnUse">
<stop stop-color="#BF1892"/>
<stop offset="1" stop-color="#0066DB"/>
</linearGradient>
</defs>
</svg>
