<svg width="147" height="121" viewBox="0 0 147 121" fill="none" xmlns="http://www.w3.org/2000/svg">
<path d="M41.6023 97H60.6364V24.2727H39.7557C33.0559 24.2727 27.3267 25.7169 22.5682 28.6051C17.786 31.4697 14.1283 35.589 11.5952 40.9631C9.03835 46.3371 7.77178 52.8002 7.79545 60.3523C7.81913 68.0937 9.16856 74.6989 11.8438 80.1676C14.4953 85.6127 18.3423 89.7794 23.3849 92.6676C28.4039 95.5559 34.4763 97 41.6023 97ZM58.3636 94.7273H41.6023C34.8788 94.7273 29.1615 93.366 24.4503 90.6435C19.7391 87.8973 16.1643 83.9555 13.7259 78.8182C11.2637 73.6809 10.0445 67.5256 10.0682 60.3523C10.0919 53.2737 11.2756 47.2131 13.6193 42.1705C15.9394 37.1278 19.3011 33.2689 23.7045 30.5938C28.108 27.8949 33.4583 26.5455 39.7557 26.5455H58.3636V94.7273Z" fill="white"/>
<g clip-path="url(#clip0_4_33)">
<path d="M104.67 97H76.6875V24.2727H104.386C111.867 24.2727 118.33 25.7287 123.776 28.6406C129.244 31.5289 133.458 35.6955 136.418 41.1406C139.401 46.562 140.892 53.0606 140.892 60.6364C140.892 68.2121 139.412 74.7225 136.453 80.1676C133.494 85.589 129.304 89.7557 123.882 92.6676C118.461 95.5559 112.057 97 104.67 97ZM96.4318 80.2386H103.96C107.559 80.2386 110.625 79.6586 113.158 78.4986C115.714 77.3385 117.656 75.3381 118.982 72.4972C120.331 69.6562 121.006 65.7027 121.006 60.6364C121.006 55.5701 120.319 51.6165 118.946 48.7756C117.597 45.9347 115.608 43.9342 112.98 42.7741C110.376 41.6141 107.18 41.0341 103.392 41.0341H96.4318V80.2386ZM150.027 97V24.2727H181.419C186.817 24.2727 191.54 25.2552 195.588 27.2202C199.637 29.1851 202.785 32.0142 205.034 35.7074C207.283 39.4006 208.408 43.8276 208.408 48.9886C208.408 54.197 207.248 58.5885 204.928 62.1634C202.632 65.7382 199.4 68.437 195.233 70.2599C191.09 72.0829 186.249 72.9943 180.709 72.9943H161.959V57.6534H176.732C179.052 57.6534 181.029 57.3693 182.662 56.8011C184.319 56.2093 185.586 55.2741 186.462 53.9957C187.362 52.7173 187.811 51.0483 187.811 48.9886C187.811 46.9053 187.362 45.2126 186.462 43.9105C185.586 42.5848 184.319 41.6141 182.662 40.9986C181.029 40.3594 179.052 40.0398 176.732 40.0398H169.772V97H150.027ZM192.641 63.6193L210.823 97H189.374L171.618 63.6193H192.641ZM236.569 24.2727V97H216.824V24.2727H236.569ZM245.926 97V24.2727H298.341V40.1818H265.67V52.6818H295.642V68.5909H265.67V81.0909H298.199V97H245.926ZM308.133 97V24.2727H327.877V53.6761H328.871L350.746 24.2727H373.758L349.184 56.6591L374.326 97H350.746L334.411 69.7273L327.877 78.25V97H308.133Z" fill="white"/>
</g>
<defs>
<clipPath id="clip0_4_33">
<rect width="75" height="121" fill="white" transform="translate(72)"/>
</clipPath>
</defs>
</svg>
